<?xml version="1.0" encoding="UTF-8" standalone="no"?>
<svg
   version="1.1"
   width="200"
   height="200"
   id="svg31"
   sodipodi:docname="logo.svg"
   inkscape:version="1.4.3 (0d15f75, 2025-12-25)"
   xmlns:inkscape="http://www.inkscape.org/namespaces/inkscape"
   xmlns:sodipodi="http://sodipodi.sourceforge.net/DTD/sodipodi-0.dtd"
   xmlns="http://www.w3.org/2000/svg"
   xmlns:svg="http://www.w3.org/2000/svg">
  <defs
     id="defs31" />
  <sodipodi:namedview
     id="namedview31"
     pagecolor="#ffffff"
     bordercolor="#000000"
     borderopacity="0.25"
     inkscape:showpageshadow="2"
     inkscape:pageopacity="0.0"
     inkscape:pagecheckerboard="0"
     inkscape:deskcolor="#d1d1d1"
     inkscape:zoom="2.1825"
     inkscape:cx="105.15464"
     inkscape:cy="109.04926"
     inkscape:window-width="1512"
     inkscape:window-height="921"
     inkscape:window-x="0"
     inkscape:window-y="33"
     inkscape:window-maximized="1"
     inkscape:current-layer="svg31" />
  <path
     d="m 0,0 c 23.252638,-0.61944569 46.01864,2.0403218 64.692871,17.070801 l 3,2.25 2,1.75 v 2 h 2 c 1.691406,1.976562 1.691406,1.976562 3.5625,4.625 l 1.878906,2.601562 c 1.745036,3.105202 2.487751,5.207693 2.558594,8.773438 -1.476562,2.378906 -1.476562,2.378906 -3.625,4.5625 l -2.261719,2.335937 -2.113281,2.101563 -2.4375,2.6875 c -2.946415,2.65896 -6.07872,4.741518 -9.410156,6.886719 -3.68055,3.010548 -3.499398,2.775726 -8.150053,6.194395 -1.736663,1.117479 -4.518183,3.400575 -6.314791,4.418886 -5.074077,3.104448 -7.169182,5.089608 -8.6875,10.8125 l 2.515625,0.390625 c 10.246576,1.792002 20.373365,4.502295 30.421875,7.171875 l 2.348633,0.598633 c 5.482367,1.491616 5.482367,1.491616 7.713867,4.838867 0.836367,5.528712 -0.0936,10.949449 -1.300781,16.351559 l -0.823486,3.72681 -0.435944,1.94852 c -0.585071,2.62492 -1.154534,5.25313 -1.724259,7.88142 -0.586284,2.70252 -1.177044,5.40406 -1.767776,8.10561 -0.448181,2.05053 -0.895241,4.10131 -1.342285,6.1521 -1.81072,8.29156 -3.675582,16.56922 -5.605469,24.83398 -8.912054,2.08876 -17.693999,3.1181 -26.816406,3.71875 l -2.806809,0.18948 c -2.979587,0.19999 -5.95941,0.39612 -8.939285,0.59177 l -3.064819,0.2038 c -12.223435,0.81167 -24.44222441,1.6042 -36.687378,2.00519 -3.659406,0.12431 -7.253887,0.3318 -10.888428,0.7832 -18.202486,2.13193 -34.422074,1.9313 -50.796875,-6.49219 -1.773859,-0.61636 -3.564776,-1.18793 -5.375,-1.6875 -4.432067,-1.22862 -8.717721,-2.71999 -13.007812,-4.37891 -2.541441,-0.97944 -2.541441,-0.97944 -4.984375,-1.39843 -2.387808,-0.52917 -3.758994,-0.94749 -5.632814,-2.53516 -1.72438,-4.2179 -2.34753,-8.50801 -3,-13 l -0.50781,-2.71484 c -1.27792,-6.90684 -2.13432,-13.88598 -3.05469,-20.84766 l -0.38476,-2.90185 c -0.74741,-5.77463 -1.2996,-11.50717 -1.59766,-17.323979 -0.27195,-2.582951 -0.27195,-2.582951 -3.39258,-4.33667 l -3.0625,-1.875 c -5.61133,-10.671557 -1.09132,-29.744647 2,-41 3.89913,-12.175073 10.51583,-22.504423 21.000001,-30 h 2 v -2 c 14.274091,-9.9918641 35.175878,-10.4364967 51.98877,-12.7243655 2.00526,-0.2748165 4.009244,-0.5577647 6.013183,-0.842041 7.128086,-0.9911092 14.181225,-1.7860299 21.373047,-2.05859372 l 2.690674,-0.1105957 C -6.8281185,0.20473379 -3.41419,0.10477408 0,0 Z"
     fill="#261971"
     transform="translate(120.30713,15.929199)"
     id="path1"
     sodipodi:nodetypes="ccccccccccccccccccccccccccccccccccccccccccccccccccccccc" />
  <path
     d="M0 0 C5.72348521 0.53241723 10.87324795 2.15601571 16.33984375 3.89453125 C20.202529 5.06116938 24.07977646 6.05098235 28 7 C47.8277512 11.8277512 47.8277512 11.8277512 50 14 C50.10083212 16.11785493 50.13082245 18.23912203 50.1328125 20.359375 C50.13479141 21.33871002 50.13479141 21.33871002 50.1368103 22.33782959 C50.13873581 24.47526711 50.13237453 26.61257568 50.125 28.75 C50.12367065 29.83196655 50.12367065 29.83196655 50.12231445 30.93579102 C50.10486968 42.97939295 49.75811918 54.97839589 49 67 C44.11870005 67.30186018 40.8993241 66.38161676 36.4375 64.4375 C29.0213576 61.29430409 21.45667197 58.74832218 13.79467773 56.27319336 C12.92657471 55.99096924 12.05847168 55.70874512 11.1640625 55.41796875 C10.38498535 55.16813232 9.6059082 54.9182959 8.80322266 54.66088867 C7 54 7 54 6 53 C5.48115469 50.20460409 5.01717859 47.41917966 4.58984375 44.609375 C4.45808243 43.75377991 4.32632111 42.89818481 4.19056702 42.0166626 C3.91181174 40.19439553 3.63539001 38.37177024 3.36108398 36.54882812 C2.9453317 33.80174788 2.51507616 31.0572086 2.08398438 28.3125 C0.6242596 18.79258408 -0.47153572 9.65366282 0 0 Z "
     fill="#5535C7"
     transform="translate(20,107)"
     id="path2"
     style="fill:#8a74d8;fill-opacity:1" />
  <path
     d="M0 0 C8.62449225 -0.36090949 17.57864394 1.19297587 24.33203125 6.94921875 C29.34482636 12.5423128 31.79711768 20.30629928 34.51953125 27.19921875 C34.84953125 27.19921875 35.17953125 27.19921875 35.51953125 27.19921875 C36.00637236 19.40976101 35.03701356 13.15280019 30.14453125 6.88671875 C27.71695188 4.40133987 25.54976704 2.84420389 22.51953125 1.19921875 C22.51953125 0.86921875 22.51953125 0.53921875 22.51953125 0.19921875 C40.20749559 -0.62990458 40.20749559 -0.62990458 47.66796875 6.15234375 C55.60925165 14.35164667 57.02448112 21.95618556 56.93969727 33.0246582 C56.6688939 40.8139321 54.85299911 45.22211762 49.26953125 50.51171875 C43.15126406 55.26893074 37.05968322 56.86282991 29.328125 56.60546875 C22.88769476 55.67389052 17.44797124 52.77919456 13.20703125 47.82421875 C8.60931956 40.94707816 6.74336817 32.41716593 4.4609375 24.55078125 C1.50013457 14.48174717 -1.14951935 9.53313532 -10.43359375 4.30078125 C-11.1090625 3.93726562 -11.78453125 3.57375 -12.48046875 3.19921875 C-8.39398088 0.4748935 -4.75370513 0.38179364 0 0 Z "
     fill="#F84AA8"
     transform="translate(121.48046875,109.80078125)"
     id="path3"
     style="fill:#00c89f;fill-opacity:1" />
  <path
     d="M0 0 C4.48398784 -0.09903473 8.96739292 -0.17154483 13.45214844 -0.21972656 C14.97700085 -0.23981599 16.50177648 -0.26709316 18.02636719 -0.30175781 C20.22089598 -0.35039796 22.41440469 -0.37299396 24.609375 -0.390625 C25.92905273 -0.41157227 27.24873047 -0.43251953 28.60839844 -0.45410156 C32.5349139 0.07161963 33.63393693 0.90299308 36 4 C38.79287369 9.10616301 40.17676007 14.5782256 41.3125 20.25 C43.80266225 31.57622186 48.50075001 41.09939541 58 48 C58.66 48.66 59.32 49.32 60 50 C51.33799024 50.54459602 42.67582194 51.08649747 34.01338196 51.62420654 C30.19080181 51.86194251 26.36862441 52.10475115 22.546875 52.35546875 C14.3530383 52.88323181 6.21093403 53.10386453 -2 53 C-1.90150757 51.49095093 -1.90150757 51.49095093 -1.80102539 49.95141602 C-1.10572438 38.94978728 -0.71222567 27.95680288 -0.4375 16.9375 C-0.39413226 15.28059234 -0.3505135 13.62369123 -0.30664062 11.96679688 C-0.20155059 7.9779337 -0.09979717 3.98899896 0 0 Z "
     fill="#754DE5"
     transform="translate(79,122)"
     id="path4"
     style="fill:#c0b0e7;fill-opacity:1" />
  <path
     d="M0 0 C1.03236786 -0.01675781 2.06473572 -0.03351562 3.12838745 -0.05078125 C21.70016142 -0.31050312 40.0784246 2.04638656 54.625 14.6875 C56.34315739 16.64737594 57.97357135 18.67019419 59.625 20.6875 C58.96721054 20.68083817 58.30942108 20.67417633 57.63169861 20.66731262 C49.27541409 20.586604 40.91911128 20.53213167 32.5625 20.5 C31.56611197 20.49614792 31.56611197 20.49614792 30.54959488 20.49221802 C12.43701357 20.43034696 -5.38203724 20.73149822 -23.36328125 23.03125 C-27.70406605 23.5499713 -32.01690649 23.91439212 -36.38671875 24.07421875 C-37.94652466 24.1354895 -37.94652466 24.1354895 -39.5378418 24.19799805 C-43.30853116 23.51952705 -44.52173208 21.94432529 -46.875 19 C-48.05876537 17.24055084 -49.22716506 15.47059751 -50.375 13.6875 C-52.81743349 10.82837838 -54.72989663 8.90253446 -58.375 7.6875 C-58.375 7.0275 -58.375 6.3675 -58.375 5.6875 C-38.93293076 1.72446301 -19.83493768 0.12971035 0 0 Z "
     fill="#744DE5"
     transform="translate(124.375,25.3125)"
     id="path5"
     style="fill:#c0b0e7;fill-opacity:1" />
  <path
     d="M0 0 C6.23112223 3.2171555 10.34278053 6.66608683 13.125 13.3125 C12.54234375 13.6528125 11.9596875 13.993125 11.359375 14.34375 C-4.24092126 23.56656666 -18.94144634 34.12054676 -32.921875 45.640625 C-33.6435083 46.23335205 -34.3651416 46.8260791 -35.10864258 47.43676758 C-36.56530709 48.63524408 -38.01834794 49.83813998 -39.4675293 51.0456543 C-40.13695557 51.59648682 -40.80638184 52.14731934 -41.49609375 52.71484375 C-42.39992798 53.46495728 -42.39992798 53.46495728 -43.32202148 54.23022461 C-44.875 55.3125 -44.875 55.3125 -46.875 55.3125 C-47.48468538 38.10582368 -43.53844976 21.70656691 -32.0625 8.4375 C-23.02867941 -0.33821143 -12.37257289 -5.21836408 0 0 Z "
     fill="#5434C7"
     transform="translate(58.875,37.6875)"
     id="path6"
     style="fill:#8a74d8;fill-opacity:1" />
  <path
     d="M0 0 C5.49455898 2.17397409 9.57748289 5.54933651 12 11 C13.05774254 18.18383474 12.12565147 24.002919 8 30 C4.76465972 33.96590099 1.77695551 35.69299989 -3.33203125 36.2578125 C-9.08116414 36.51639419 -12.57290874 36.00546352 -17 32 C-21.77944319 25.67046713 -22.61330315 20.73705513 -22 13 C-20.52719329 7.47697485 -18.01600518 4.28300354 -13.375 1.109375 C-8.92910845 -0.96732434 -4.75989886 -0.92149425 0 0 Z "
     fill="#F0EBE7"
     transform="translate(96,71)"
     id="path7" />
  <path
     d="M0 0 C5.44126985 2.46397125 8.78606835 6.5169863 11 12 C12.09395638 17.99297844 11.21693606 23.03210692 8.2109375 28.30859375 C5.29368183 32.38334118 1.92988629 34.49145958 -2.98046875 35.34375 C-7.88110773 35.69069789 -10.60778805 35.04779056 -14.4375 31.875 C-19.18145774 27.14047358 -20.07018269 23.13400266 -20.375 16.5625 C-20.25728299 11.14751761 -19.32150396 8.28299195 -16 4 C-11.12698572 -0.52494183 -6.36458333 -0.99673736 0 0 Z "
     fill="#EFEAE6"
     transform="translate(137,71)"
     id="path8" />
  <path
     d="M 0,0 3,2.25 5,4 c 0.62966,0.7044721 1.3143276,1.35161 2,2 1.6914063,1.9765625 1.6914063,1.9765625 3.5625,4.625 l 1.878906,2.601563 C 14.165132,16.293844 14.866303,18.485674 15,22 c -1.144531,1.898437 -1.144531,1.898437 -2.8125,3.375 l -1.644531,1.523437 C 9,28 9,28 7,28 8.2929969,25.115622 9.6594136,23.127806 12,21 9.2517616,9.090967 -1.2555515,1.88887 -11.023438,-4.2773437 -23.795571,-11.221146 -37.225074,-13.018576 -51.507812,-13.316406 l -2.580292,-0.06297 c -2.678896,-0.06458 -5.357876,-0.123947 -8.036896,-0.183121 -1.833342,-0.04327 -3.666675,-0.08689 -5.5,-0.130859 C -72.08325,-13.799542 -76.541584,-13.901058 -81,-14 v -2 c 28.13599,-2.497013 57.941578,-2.559218 81,16 z"
     fill="#231953"
     transform="translate(185,33)"
     id="path9"
     sodipodi:nodetypes="ccccccccccccccccccc" />
  <path
     d="M0 0 C2.12522408 3.18783613 2.50409026 5.09273291 3.1875 8.8125 C5.74408046 20.25319757 10.3266881 29.97295043 20 37 C20.66 37.66 21.32 38.32 22 39 C15.29980211 39.70132913 8.73742646 40.11044961 2 40 C2 39.67 2 39.34 2 39 C4.97 38.505 4.97 38.505 8 38 C7.59007813 37.53851563 7.18015625 37.07703125 6.7578125 36.6015625 C-2.03103365 25.96243295 -0.24753341 13.08118848 0 0 Z "
     fill="#4E31B8"
     transform="translate(117,133)"
     id="path10" />
  <path
     d="M 0,0 C 7.8653164,-0.71502876 14.332903,1.3744 21.742187,3.6992188 26.362319,5.1462513 31.042072,6.2234925 35.777344,7.2265625 38,8 38,8 40,11 c 0.835649,5.523965 -0.09158,10.94203 -1.296875,16.339844 l -0.822998,3.725342 -0.437103,1.951995 c -0.593052,2.654292 -1.172853,5.311416 -1.753281,7.968491 -0.900408,4.119889 -1.806304,8.238578 -2.712936,12.357101 C 31.24466,61.214326 29.229926,69.0464 27.69626,76.959501 L 26,77 c -0.266013,-6.269275 0.65499,-11.472532 2.3125,-17.5 1.99216,-7.571746 3.636322,-15.104538 4.996094,-22.8125 0.855281,-4.561498 1.962759,-9.039374 3.140625,-13.527344 C 37.160334,19.08007 37.108539,15.129632 37,11 33.084148,9.8929314 29.16717,8.7898971 25.25,7.6875 L 21.941406,6.7519531 C 14.657534,4.7047109 7.3506297,2.7927757 0,1 Z"
     fill="#241a53"
     transform="translate(160,97)"
     id="path11"
     sodipodi:nodetypes="ccccccccccccccccccc" />
  <path
     d="M 0,0 C 3.59674,2.6626841 5.2689071,4.6989995 5.5625,9.0625 5.0994429,12.826621 4.2565573,14.924072 1,17 c -3.2370418,1.64569 -3.8670533,1.760238 -7,1 -4.055025,-2.096379 -5.367119,-4.565182 -5.5,-9.0625 0.350474,-3.5803662 -0.276262,-2.0316502 1.019095,-4.8084132 C -9.3243772,1.6499221 -10.018183,2.7948977 -8,1 -5.074084,-0.462958 -3.2724634,-1.3329745 0,0 Z"
     fill="#2c2561"
     transform="translate(95,81)"
     id="path12"
     sodipodi:nodetypes="cccccscc" />
  <path
     d="M 0,0 C 3.8274934,0.03601729 4.1919814,-0.04498005 6.625,2.5 9.0865174,6.2691985 8.9026802,8.1534924 8.3125,12.476563 7.7055672,14.932435 7.3262695,15.96383 4.625,17.5625 1.2855817,19.021337 -2.0672533,18.547734 -4.8125,16.125 -7.7824958,12.802876 -7.1749079,8.5032969 -6.375,4.5625 -5.5686964,1.7507374 -3.3258256,0.33831137 0,0 Z"
     fill="#29205f"
     transform="translate(132.375,80.4375)"
     id="path13"
     sodipodi:nodetypes="ccccccc" />
  <path
     d="M0 0 C0.38615479 0.61641357 0.77230957 1.23282715 1.17016602 1.86791992 C3.3966035 4.46211319 5.04712823 5.04974413 8.27734375 6.11328125 C9.33816162 6.47099609 10.39897949 6.82871094 11.49194336 7.19726562 C12.62897705 7.56529297 13.76601074 7.93332031 14.9375 8.3125 C17.31291273 9.09901501 19.68790923 9.88678812 22.0625 10.67578125 C23.82980469 11.25900146 23.82980469 11.25900146 25.6328125 11.85400391 C28.62080334 12.87094336 31.56073712 13.95677245 34.5 15.10546875 C45.81293933 19.48304143 55.86565648 21.09608643 68 21 C68 21.33 68 21.66 68 22 C53.3899773 24.23053782 44.0291487 22.86200492 30.85205078 16.81152344 C27.76098598 15.45709431 24.57282417 14.57524718 21.328125 13.67578125 C17.69347655 12.62075745 14.16569908 11.29763531 10.625 9.96484375 C8.95309348 9.35031858 7.26576314 8.77525763 5.5625 8.25390625 C3.375 7.5625 3.375 7.5625 0 6 C-1.0625 3.375 -1.0625 3.375 -1 1 C-0.67 0.67 -0.34 0.34 0 0 Z "
     fill="#2A1E5B"
     transform="translate(18,162)"
     id="path14" />
  <path
     d="M 0,0 C -1.2508274,3.7524823 -2.3682539,4.0515262 -5.75,5.9375 -17.748347,12.673099 -26.084163,24.088504 -29.96875,37.292969 -30.701465,40.186516 -31.382856,43.079854 -32,46 h -1 c -0.345456,-6.267562 0.577797,-10.70357 3.0625,-16.4375 l 0.959229,-2.255371 c 4.018488,-9.099552 9.74621,-16.526055 17.89236,-22.3500843 C -10.369654,4.339121 -9.6453439,3.6891151 -9,3 -5.6331608,0.56839395 -4.2664964,0 0,0 Z"
     fill="#23194e"
     transform="translate(37,29)"
     id="path15"
     sodipodi:nodetypes="cccccccccc" />
  <path
     d="M0 0 C1.95825873 -0.02694851 3.91662226 -0.04637218 5.875 -0.0625 C6.96554688 -0.07410156 8.05609375 -0.08570312 9.1796875 -0.09765625 C12 0 12 0 14 1 C12.68 6.61 11.36 12.22 10 18 C7.76619202 14.64928803 6.07908453 11.18407927 4.31640625 7.5703125 C2.98534645 4.97138861 1.52868652 2.48690111 0 0 Z "
     fill="#744CDF"
     transform="translate(176,112)"
     id="path16"
     style="fill:#c0b0e7;fill-opacity:1" />
  <path
     d="M0 0 C0 4.07636767 -1.20023635 5.06024816 -4 8 C-5.96937578 9.36088389 -7.98267328 10.58901839 -10.046875 11.80078125 C-12.20493134 13.06045226 -12.20493134 13.06045226 -14.6875 15.25 C-17.18897288 17.14300651 -18.91482346 17.6474084 -22 18 C-18.03058421 13.61995499 -13.47435388 10.36413358 -8.671875 6.9375 C-5.65370554 4.74888589 -2.8183668 2.43750642 0 0 Z "
     fill="#271C57"
     transform="translate(190,62)"
     id="path17" />
  <path
     d="M 0,0 C -1.124738,3.374214 -1.5582705,3.5705961 -4.4375,5.3125 -7.9872813,7.6984186 -9.1074837,9.7357554 -10,14 L -7.9427262,14.343643 -8,16 -13,15 c -0.113315,-3.229474 -0.155269,-5.0476452 1,-8 3.1685975,-2.9792613 7.4606523,-7 12,-7 z"
     fill="#241a54"
     transform="translate(167,81)"
     id="path19"
     sodipodi:nodetypes="cccccccc" />
  <path
     d="M0 0 C-1 3 -1 3 -2.8125 4.1875 C-5 5 -5 5 -9 5 C-9 4.34 -9 3.68 -9 3 C-5.63316085 0.56839395 -4.26649636 0 0 0 Z "
     fill="#271C59"
     transform="translate(37,29)"
     id="path22" />
  <path
     d="M0 0 C0.66 0 1.32 0 2 0 C1.25 6.625 1.25 6.625 -1 10 C-1.125 2.25 -1.125 2.25 0 0 Z "
     fill="#1F154B"
     transform="translate(5,65)"
     id="path26" />
  <path
     d="M0 0 C6.625 0.75 6.625 0.75 10 3 C3.47692308 3.36923077 3.47692308 3.36923077 1.0625 1.5 C0.5365625 0.7575 0.5365625 0.7575 0 0 Z "
     fill="#281C58"
     transform="translate(176,100)"
     id="path28" />
  <path
     d=""
     fill="#3C2D83"
     transform="translate(0,0)"
     id="path31" />
</svg>
