<?xml version="1.0" encoding="UTF-8" standalone="no"?>
<svg
   id="svg"
   version="1.1"
   width="250"
   height="250"
   viewBox="76 44 250 250"
   sodipodi:docname="octoshaper-logo-outline.svg"
   inkscape:version="1.4.3 (0d15f75, 2025-12-25)"
   xmlns:inkscape="http://www.inkscape.org/namespaces/inkscape"
   xmlns:sodipodi="http://sodipodi.sourceforge.net/DTD/sodipodi-0.dtd"
   xmlns="http://www.w3.org/2000/svg"
   xmlns:svg="http://www.w3.org/2000/svg">
  <defs
     id="defs1" />
  <sodipodi:namedview
     id="namedview1"
     pagecolor="#ffffff"
     bordercolor="#000000"
     borderopacity="0.25"
     inkscape:showpageshadow="2"
     inkscape:pageopacity="0.0"
     inkscape:pagecheckerboard="0"
     inkscape:deskcolor="#d1d1d1"
     inkscape:zoom="1.9493891"
     inkscape:cx="84.385413"
     inkscape:cy="107.21308"
     inkscape:window-width="1512"
     inkscape:window-height="921"
     inkscape:window-x="0"
     inkscape:window-y="33"
     inkscape:window-maximized="0"
     inkscape:current-layer="svgg" />
  <g
     id="svgg">
    <path
       id="path0"
       d="m 142.025,153.125 c -6.012,18.048 -1.842,39.663 9.296,48.194 10.339,7.919 3.01,17.057 -14.602,18.204 -12.195,0.793 -18.317,3.851 -23.373,11.673 -3.76,5.818 -4.028,12.661 -0.613,15.659 1.935,1.7 2.32,1.538 3.886,-1.64 3.402,-6.905 7.63,-8.88 19.045,-8.895 14.109,-0.019 21.203,-3.395 33.918,-16.141 4.752,-4.764 4.993,-4.945 6.573,-4.945 4.603,0 5.628,6.158 2.183,13.127 -2.607,5.275 -8.028,9.371 -17.414,13.157 -1.819,0.734 -4.296,1.802 -5.505,2.375 -8.855,4.192 -11.993,13.701 -6.304,19.103 2.605,2.473 4.528,2.16 8.698,-1.419 4.792,-4.113 7.953,-5.221 18.554,-6.5 23.012,-2.777 36.034,-14.506 38.105,-34.322 0.659,-6.301 1.759,-7.917 4.798,-7.046 3.354,0.962 8.863,9.129 12.832,19.026 4.429,11.045 3.947,18.601 -1.557,24.416 -3.079,3.252 -3.592,4.089 -3.592,5.857 0,6.979 16.423,5.723 25.995,-1.989 12.301,-9.91 12.774,-24.578 1.363,-42.269 -2.795,-4.333 -3.122,-6.335 -1.072,-6.57 2.69,-0.309 10.035,6.666 15.265,14.496 l 3.074,4.602 5.952,2.903 c 7.929,3.868 12.299,8.095 12.316,11.913 0.019,4.522 3.083,4.586 6.99,0.146 4.219,-4.793 2.775,-14.848 -3.067,-21.357 -5.709,-6.36 -14.811,-10.963 -28.852,-14.589 -10.484,-2.708 -10.488,-2.711 -6.826,-6.512 29.83006,-20.84135 1.21134,-95.43087 -49.75535,-95.07468 C 170.59687,108.97106 149.784,129.83 142.025,153.125 Z m 96.256,4.158 c 9.013,2.403 14.793,12.985 12.307,22.53 -4.125,15.836 -25.848,17.885 -32.843,3.098 -6.934,-14.656 5.147,-29.732 20.536,-25.628 m -44.084,0.125 c 13.546,4.186 17.822,21.818 7.565,31.192 -11.621,10.621 -29.191,3.545 -30.863,-12.428 -1.331,-12.72 10.923,-22.589 23.298,-18.764"
       stroke="none"
       fill="#9441f1"
       fill-rule="evenodd"
       style="display:inline;fill:#000000;fill-opacity:1"
       sodipodi:nodetypes="csccccccsccccccccccscccccccccccsccccccccc" />
    <path
       id="path2"
       style="display:inline;fill:#000000;fill-opacity:1"
       d="m 178.54492,66.050781 c -2.59688,0.120809 -5.06618,1.050534 -7.57366,1.657791 -5.03679,1.438803 -10.06384,3.059852 -14.73625,5.456343 -1.42859,0.696093 -2.65176,1.722716 -3.65858,2.94542 -0.56586,0.404378 -0.74311,0.917682 -0.45197,1.562271 0.93828,4.744816 1.99892,9.466829 2.85627,14.226651 0.11146,0.938662 0.44879,2.196133 -0.53932,2.792149 -2.56935,1.813231 -5.26212,3.453017 -7.76277,5.366844 -3.2934,2.4238 -6.35969,5.13355 -9.39012,7.87263 -0.40617,0.49031 -1.02887,0.51753 -1.57748,0.27416 -4.17247,-1.42012 -8.16432,-3.39322 -12.45929,-4.44639 -1.45076,-0.36401 -3.17859,-0.35516 -4.28651,0.79943 -2.23884,2.13363 -3.88996,4.78991 -5.6115,7.33745 -2.76366,4.32091 -5.43814,8.7338 -7.48504,13.44626 -0.63014,1.51653 -1.30164,3.34522 -0.3466,4.87905 1.39335,2.34428 3.60135,4.04894 5.64955,5.79358 1.89984,1.61562 4.02937,2.95444 5.85374,4.6555 0.69683,0.7081 0.11162,1.77006 -0.0115,2.59557 -1.34744,4.67875 -2.72579,9.3744 -3.30339,14.22457 -0.38264,2.54214 -0.47659,5.15759 -1.2515,7.62127 -4.00331,0.87739 -8.10469,1.3325 -12.03885,2.5057 -1.923694,0.557 -3.816291,1.86467 -4.312708,3.90836 -0.609222,2.56239 0.01961,5.19888 0.238051,7.77199 0.5444,4.29712 0.844064,8.65317 1.939683,12.85692 0.598249,2.31014 1.986824,4.56714 4.269814,5.51377 2.7403,1.16473 5.76312,1.33099 8.65449,1.91437 2.06321,0.41905 4.21475,0.62825 6.15382,1.48983 0.56819,0.5715 0.74345,1.46032 1.1605,2.15211 1.38344,2.72641 2.5085,5.63867 4.42544,8.05101 1.19082,1.49487 3.18369,2.24345 5.06296,1.87219 2.64694,-0.48885 5.13844,-1.57016 7.69094,-2.39563 1.6543,-0.63542 3.68154,-1.29577 4.3418,-3.125 0.59287,-1.80161 -0.72417,-3.39908 -1.55155,-4.87527 -1.2874,-2.2271 -2.51555,-4.72616 -3.46603,-6.97434 -1.16602,-2.77371 -2.13013,-5.63214 -2.87695,-8.54687 -0.15384,-0.60181 -0.37399,-1.52681 -0.52909,-2.25752 -0.6215,-2.88694 -1.01378,-5.82135 -1.20333,-8.76787 -0.0262,-0.55065 -0.0794,-1.44383 -0.0899,-2.12419 -0.21344,-7.80573 1.13039,-15.627 3.74809,-22.97542 0.23597,-0.66408 0.59259,-1.6122 0.89697,-2.37587 0.58358,-1.46724 1.21298,-2.88678 1.85708,-4.24407 8.30342,-17.36966 23.5815,-31.25843 41.6522,-37.89373 0.53426,-0.19429 1.38901,-0.49999 2.0519,-0.71768 12.65217,-4.26432 26.51752,-4.76093 39.45862,-1.49837 15.77202,3.87074 30.15409,13.00201 40.49375,25.50938 9.73367,11.70674 16.02771,26.45813 16.76533,41.73545 0.45084,8.77567 -1.04873,17.63671 -4.36545,25.77418 -0.657,1.68092 -1.34417,3.75073 -0.20102,5.38454 1.13057,1.47098 3.0613,1.8628 4.62607,2.7011 2.41932,1.04327 4.80889,2.3221 7.43981,2.72602 1.72405,0.28309 3.44139,-0.65002 4.33857,-2.11106 0.64226,-0.87254 1.09635,-2.06976 2.29223,-2.29419 3.4751,-1.06963 7.11749,-1.48443 10.59629,-2.53359 1.94898,-0.58775 3.4383,-2.22457 3.99538,-4.16223 0.99441,-3.29954 1.25323,-6.76227 1.8039,-10.15176 0.33371,-2.87017 1.06375,-5.76097 0.82505,-8.67376 -0.14135,-2.02666 -1.57495,-3.7499 -3.40168,-4.5435 -3.43796,-1.5742 -7.22578,-2.19195 -10.69922,-3.66992 -1.20453,-0.46395 -1.13081,-1.94716 -1.31915,-3.00706 -0.63492,-5.94944 -1.69224,-11.87398 -3.41435,-17.60899 -0.33561,-1.2639 -1.02666,-2.47332 -1.05947,-3.79411 0.65821,-1.31442 1.96904,-2.15388 3.02418,-3.13423 2.15151,-1.85576 4.51447,-3.56239 6.59361,-5.5586 1.38514,-1.26796 2.02526,-3.27652 1.47792,-5.09428 -0.8167,-2.7766 -2.34928,-5.27007 -3.61524,-7.85547 -2.18452,-4.05558 -4.43895,-8.12203 -7.3634,-11.69966 -0.93742,-1.174 -2.27721,-2.25006 -3.87488,-2.07182 -2.44231,0.27734 -4.70175,1.35462 -7.00481,2.15104 -1.86972,0.63892 -3.67851,1.5598 -5.64948,1.83724 -1.25129,-0.016 -2.08056,-1.16455 -2.96851,-1.89316 -4.6209,-4.54136 -9.31496,-9.02928 -14.42595,-13.021599 -0.60162,-0.404935 -0.96542,-1.079368 -0.80281,-1.809852 0.46452,-3.393504 1.39985,-6.702429 2.08011,-10.05646 0.40308,-1.82491 0.8048,-3.650119 1.20895,-5.47479 -0.9588,-1.321314 -1.88895,-2.721051 -3.33156,-3.566717 -4.11635,-2.661659 -8.69339,-4.508749 -13.25482,-6.255577 -2.61623,-0.900901 -5.19962,-1.973091 -7.92677,-2.49195 -1.83915,-0.369291 -3.82448,0.369049 -4.91191,1.91235 -1.65649,2.279815 -2.58378,4.981261 -3.79738,7.503626 -0.81909,1.690321 -1.42815,3.523708 -2.58029,5.025221 -0.57203,0.442042 -1.38817,0.04546 -2.03889,0.0067 -4.95751,-1.058135 -9.97218,-1.92924 -15.04748,-2.11631 -4.26347,-0.225717 -8.53362,-0.04668 -12.79889,-0.106163 -0.87226,-0.0078 -1.86668,-0.205022 -2.28263,-1.075027 -1.46956,-2.515546 -2.5515,-5.236878 -3.8661,-7.834667 -1.10163,-2.136987 -1.9993,-4.559887 -3.98554,-6.052263 -0.88234,-0.612306 -1.95287,-0.894505 -3.02149,-0.873047 z" />
  </g>
</svg>
