<?xml version="1.0" encoding="UTF-8" standalone="no"?>
<svg
   id="svg"
   version="1.1"
   width="250"
   height="250"
   viewBox="76 44 250 250"
   sodipodi:docname="octoshaper-logo.svg"
   inkscape:version="1.4.3 (0d15f75, 2025-12-25)"
   xmlns:inkscape="http://www.inkscape.org/namespaces/inkscape"
   xmlns:sodipodi="http://sodipodi.sourceforge.net/DTD/sodipodi-0.dtd"
   xmlns="http://www.w3.org/2000/svg"
   xmlns:svg="http://www.w3.org/2000/svg">
  <defs
     id="defs1" />
  <sodipodi:namedview
     id="namedview1"
     pagecolor="#ffffff"
     bordercolor="#000000"
     borderopacity="0.25"
     inkscape:showpageshadow="2"
     inkscape:pageopacity="0.0"
     inkscape:pagecheckerboard="0"
     inkscape:deskcolor="#d1d1d1"
     inkscape:zoom="3.0865212"
     inkscape:cx="136.56151"
     inkscape:cy="135.58954"
     inkscape:window-width="1920"
     inkscape:window-height="1022"
     inkscape:window-x="0"
     inkscape:window-y="30"
     inkscape:window-maximized="0"
     inkscape:current-layer="svgg" />
  <g
     id="svgg">
    <rect
       style="fill:#ffffff"
       id="rect2"
       width="131.53967"
       height="127.6518"
       x="156.99734"
       y="107.17793"
       ry="0.48598403" />
    <path
       id="path0"
       d="m 179.42,67.975 c 0.604,0.182 1.315,0.474 1.58,0.65 0.265,0.176 0.147,0.013 -0.263,-0.363 -0.41,-0.376 -1.121,-0.669 -1.581,-0.65 -0.678,0.027 -0.628,0.096 0.264,0.363 m 2.883,2.919 c 0.357,0.749 0.719,1.292 0.804,1.208 0.178,-0.179 -1.007,-2.571 -1.275,-2.571 -0.098,0 0.114,0.613 0.471,1.363 m -27.151,4.902 c -0.47,0.439 -0.855,0.909 -0.855,1.045 0,0.137 0.439,-0.165 0.976,-0.669 0.916,-0.861 1.144,-1.172 0.855,-1.172 -0.067,0 -0.506,0.358 -0.976,0.796 m 98.788,4.914 c 0.518,0.67 1.021,1.148 1.117,1.063 0.096,-0.086 -0.328,-0.634 -0.943,-1.218 l -1.117,-1.063 0.943,1.218 m -60.092,3.153 c 0.376,0.098 0.991,0.098 1.367,0 0.376,-0.098 0.068,-0.179 -0.684,-0.179 -0.752,0 -1.059,0.081 -0.683,0.179 m 9.184,0.007 c 0.486,0.093 1.189,0.09 1.562,-0.008 0.374,-0.098 -0.024,-0.174 -0.883,-0.17 -0.859,0.005 -1.165,0.085 -0.679,0.178 m 4.878,0.384 c 0.376,0.098 0.991,0.098 1.367,0 0.376,-0.099 0.069,-0.179 -0.683,-0.179 -0.752,0 -1.06,0.08 -0.684,0.179 m -54.297,13.057 c -1.331,0.852 -1.762,1.425 -0.586,0.778 0.897,-0.492 2.301,-1.578 2.051,-1.586 -0.107,-0.003 -0.766,0.36 -1.465,0.808 m -4.199,2.919 -1.172,1.006 1.27,-0.84 c 0.698,-0.462 1.269,-0.916 1.269,-1.009 0,-0.292 -0.165,-0.19 -1.367,0.843 m 59.277,0.43 c 0.376,0.098 0.992,0.098 1.368,0 0.376,-0.098 0.068,-0.179 -0.684,-0.179 -0.752,0 -1.06,0.081 -0.684,0.179 m -88.647,5.102 c -0.41,0.376 -0.516,0.529 -0.236,0.341 0.28,-0.189 1.08,-0.479 1.776,-0.644 1.162,-0.276 1.182,-0.304 0.237,-0.341 -0.567,-0.022 -1.367,0.268 -1.777,0.644 m 19.8,2.246 c -0.949,0.967 -1.638,1.758 -1.53,1.758 0.107,0 0.972,-0.791 1.92,-1.758 0.949,-0.967 1.638,-1.758 1.53,-1.758 -0.107,0 -0.971,0.791 -1.92,1.758 m 125.195,2.93 c 2.571,2.578 4.763,4.687 4.871,4.687 0.107,0 -1.909,-2.109 -4.48,-4.687 -2.572,-2.579 -4.763,-4.688 -4.871,-4.688 -0.107,0 1.909,2.109 4.48,4.688 m -31.413,-3.758 c 0.399,0.363 4.265,2.188 4.265,2.013 0,-0.22 -3.731,-2.162 -4.154,-2.162 -0.15,0 -0.2,0.067 -0.111,0.149 m -64.974,1.637 c -1.46,0.792 -1.371,1.122 0.098,0.363 0.645,-0.334 1.172,-0.69 1.172,-0.792 0,-0.251 -0.042,-0.237 -1.27,0.429 m 27.637,0.413 c -25.848,3.89 -46.505,20.6 -54.264,43.895 -6.012,18.048 -1.842,39.663 9.296,48.194 10.339,7.919 3.01,17.057 -14.602,18.204 -12.195,0.793 -18.317,3.851 -23.373,11.673 -3.76,5.818 -4.028,12.661 -0.613,15.659 1.935,1.7 2.32,1.538 3.886,-1.64 3.402,-6.905 7.63,-8.88 19.045,-8.895 14.109,-0.019 21.203,-3.395 33.918,-16.141 4.752,-4.764 4.993,-4.945 6.573,-4.945 4.603,0 5.628,6.158 2.183,13.127 -2.607,5.275 -8.028,9.371 -17.414,13.157 -1.819,0.734 -4.296,1.802 -5.505,2.375 -8.855,4.192 -11.993,13.701 -6.304,19.103 2.605,2.473 4.528,2.16 8.698,-1.419 4.792,-4.113 7.953,-5.221 18.554,-6.5 23.012,-2.777 36.034,-14.506 38.105,-34.322 0.659,-6.301 1.759,-7.917 4.798,-7.046 3.354,0.962 8.863,9.129 12.832,19.026 4.429,11.045 3.947,18.601 -1.557,24.416 -3.079,3.252 -3.592,4.089 -3.592,5.857 0,6.979 16.423,5.723 25.995,-1.989 12.301,-9.91 12.774,-24.578 1.363,-42.269 -2.795,-4.333 -3.122,-6.335 -1.072,-6.57 2.69,-0.309 10.035,6.666 15.265,14.496 l 3.074,4.602 5.952,2.903 c 7.929,3.868 12.299,8.095 12.316,11.913 0.019,4.522 3.083,4.586 6.99,0.146 4.219,-4.793 2.775,-14.848 -3.067,-21.357 -5.709,-6.36 -14.811,-10.963 -28.852,-14.589 -10.484,-2.708 -10.488,-2.711 -6.826,-6.512 20.515,-21.298 12.622,-62.19 -15.903,-82.404 -12.948,-9.174 -32.055,-14.232 -45.899,-12.148 m -59.766,0.926 -1.171,0.298 1.051,0.047 c 0.578,0.025 1.16,-0.13 1.292,-0.345 0.133,-0.215 0.187,-0.37 0.121,-0.344 -0.066,0.025 -0.648,0.18 -1.293,0.344 m 75.851,0.808 c 31.193,4.256 55.498,31.158 55.738,61.692 0.049,6.29 -0.241,7.138 -2.376,6.956 -2.584,-0.221 -2.957,-1.246 -3.281,-9.008 -0.677,-16.227 -6.644,-29.628 -17.918,-40.241 -16.892,-15.901 -38.852,-19.624 -63.482,-10.762 -7.206,2.592 -8.359,2.684 -8.984,0.715 -0.47,-1.483 1.173,-2.589 7.828,-5.273 9.699,-3.909 22.205,-5.481 32.475,-4.079 m 32.548,2.459 c 0,0.108 0.527,0.571 1.172,1.03 0.644,0.459 1.172,0.747 1.172,0.639 0,-0.107 -0.528,-0.571 -1.172,-1.029 -0.645,-0.459 -1.172,-0.747 -1.172,-0.64 m -95.516,9.722 -3.508,3.613 3.614,-3.508 c 3.356,-3.257 3.791,-3.719 3.507,-3.719 -0.058,0 -1.684,1.626 -3.613,3.614 m 105.265,-1.954 c 0.958,1.021 1.793,1.856 1.856,1.856 0.293,0 -0.017,-0.351 -1.742,-1.97 l -1.855,-1.741 1.741,1.855 m 4.899,4.981 c 0.839,0.859 1.614,1.562 1.721,1.562 0.108,0 -0.491,-0.703 -1.33,-1.562 -0.839,-0.859 -1.614,-1.563 -1.721,-1.563 -0.108,0 0.491,0.704 1.33,1.563 m -27.702,0.377 c 6.104,3.005 8.582,7.042 6.058,9.867 -3.152,3.527 -13.406,-0.887 -14.798,-6.369 -1.215,-4.787 2.832,-6.407 8.74,-3.498 m -123.291,4.799 c 1.619,1.724 1.97,2.034 1.97,1.741 0,-0.063 -0.835,-0.898 -1.856,-1.855 l -1.855,-1.742 1.741,1.856 m 26.252,12.223 c -0.654,1.437 -0.53,1.743 0.178,0.437 0.331,-0.609 0.528,-1.181 0.439,-1.271 -0.09,-0.089 -0.367,0.286 -0.617,0.834 m -4.487,11.789 c -0.345,1.242 -0.715,3.048 -0.823,4.015 -0.211,1.891 -0.175,1.783 0.97,-2.899 0.881,-3.602 0.772,-4.428 -0.147,-1.116 m 107.939,1.923 c 9.013,2.403 14.793,12.985 12.307,22.53 -4.125,15.836 -25.848,17.885 -32.843,3.098 -6.934,-14.656 5.147,-29.732 20.536,-25.628 m -44.084,0.125 c 13.546,4.186 17.822,21.818 7.565,31.192 -11.621,10.621 -29.191,3.545 -30.863,-12.428 -1.331,-12.72 10.923,-22.589 23.298,-18.764 m -79.305,3.601 c -0.464,4.085 -1.132,5.788 -2.271,5.788 -0.353,0 -0.538,0.104 -0.411,0.231 0.458,0.458 1.743,-0.267 2.182,-1.229 0.484,-1.064 1.443,-8.297 1.14,-8.601 -0.102,-0.101 -0.39,1.613 -0.64,3.811 m 13.888,2.274 c -0.142,1.181 -0.235,2.938 -0.208,3.905 0.03,1.063 0.182,0.37 0.387,-1.758 0.372,-3.873 0.231,-5.563 -0.179,-2.147 m 162.326,3.123 c 0,0.752 0.081,1.06 0.179,0.684 0.098,-0.376 0.098,-0.991 0,-1.367 -0.098,-0.376 -0.179,-0.069 -0.179,0.683 m -162.93,4.688 c -0.236,11.405 3.197,23.825 9.418,34.071 1.275,2.101 0.79,2.593 -4.222,4.282 -8.815,2.97 -7.898,3.562 -13.969,-9.009 -0.677,-1.403 -2.157,-1.881 -9.808,-3.172 -9.351,-1.578 -8.818,-0.874 -10.782,-14.258 -0.378,-2.578 -0.705,-4.194 -0.727,-3.591 -0.094,2.643 2.098,14.49 2.921,15.778 0.682,1.07 1.782,1.375 9.672,2.682 7.825,1.297 7.525,1.097 10.376,6.927 3.809,7.789 3.839,7.802 11.611,5.321 6.763,-2.159 6.951,-2.413 4.623,-6.244 -4.984,-8.205 -7.649,-17.079 -8.556,-28.49 -0.282,-3.545 -0.532,-5.479 -0.557,-4.297 M 98.733,170.41 c -0.506,0.484 -0.644,0.669 -0.307,0.411 0.338,-0.257 1.049,-0.641 1.582,-0.854 0.644,-0.257 0.747,-0.395 0.307,-0.411 -0.364,-0.014 -1.076,0.371 -1.582,0.854 m -1.369,2.832 c 0.004,0.86 0.084,1.165 0.178,0.679 0.093,-0.486 0.09,-1.189 -0.008,-1.562 -0.098,-0.374 -0.174,0.024 -0.17,0.883 m 0.399,3.321 c 0,0.966 0.076,1.362 0.169,0.878 0.093,-0.483 0.093,-1.274 0,-1.757 -0.093,-0.484 -0.169,-0.088 -0.169,0.879 m 208.984,2.343 c 0,0.967 0.076,1.363 0.169,0.879 0.093,-0.483 0.093,-1.274 0,-1.758 -0.093,-0.483 -0.169,-0.088 -0.169,0.879 m -27.75,1.172 c 0,0.752 0.08,1.06 0.179,0.684 0.098,-0.376 0.098,-0.991 0,-1.367 -0.099,-0.376 -0.179,-0.069 -0.179,0.683 m -5.548,20.436 c -0.024,0.654 0.771,1.746 1.442,1.98 0.617,0.215 0.626,0.187 0.081,-0.247 -0.338,-0.269 -0.816,-0.841 -1.063,-1.27 -0.246,-0.43 -0.453,-0.638 -0.46,-0.463 m 7.801,4.759 c 0.537,0.307 1.152,0.559 1.367,0.559 0.215,0 -0.049,-0.252 -0.586,-0.559 -0.537,-0.307 -1.152,-0.558 -1.367,-0.558 -0.215,0 0.049,0.251 0.586,0.558 m 5.56,0.439 c -0.695,0.793 -1.116,0.958 -1.953,0.769 -0.913,-0.207 -0.963,-0.178 -0.342,0.198 0.905,0.547 2.356,-0.034 2.975,-1.191 0.566,-1.057 0.393,-1 -0.68,0.224 m -40.404,10.852 c 4.19,2.18 5.531,9.217 1.756,9.217 -3.868,0 -7.969,-6.599 -5.584,-8.984 0.915,-0.915 2.348,-1.002 3.828,-0.233 m 31.001,1.639 c 1.307,0.668 2.671,2.375 2.671,3.344 0,1.952 -3.95,1.534 -6.134,-0.65 -2.828,-2.828 -0.439,-4.687 3.463,-2.694 m -80.018,3.345 c 1.35,0.719 1.804,1.568 1.817,3.399 0.032,4.278 -4.364,7.693 -7.116,5.529 -3.505,-2.757 1.393,-11.008 5.299,-8.928"
       stroke="none"
       fill="#9441f1"
       fill-rule="evenodd"
       style="display:inline"
       sodipodi:nodetypes="cssccccsccscscccccccsscccccccsccccccccsccsscccccccscsccsssccsscccscccsccccccsccccccccccsccccccccccccccccccccccccccccccscccccsccsscccsssccccccsccccccccccccccccccccssccccccccssccccccccccscccccccccccccccccccccccccccccccssscccccccssccssccccc" />
    <path
       id="path2"
       style="display:inline;fill:#f554bf;fill-opacity:1"
       d="m 178.54492,66.050781 c -2.59688,0.120809 -5.06618,1.050534 -7.57366,1.657791 -5.03679,1.438803 -10.06384,3.059852 -14.73625,5.456343 -1.42859,0.696093 -2.65176,1.722716 -3.65858,2.94542 -0.56586,0.404378 -0.74311,0.917682 -0.45197,1.562271 0.93828,4.744816 1.99892,9.466829 2.85627,14.226651 0.11146,0.938662 0.44879,2.196133 -0.53932,2.792149 -2.56935,1.813231 -5.26212,3.453017 -7.76277,5.366844 -3.2934,2.4238 -6.35969,5.13355 -9.39012,7.87263 -0.40617,0.49031 -1.02887,0.51753 -1.57748,0.27416 -4.17247,-1.42012 -8.16432,-3.39322 -12.45929,-4.44639 -1.45076,-0.36401 -3.17859,-0.35516 -4.28651,0.79943 -2.23884,2.13363 -3.88996,4.78991 -5.6115,7.33745 -2.76366,4.32091 -5.43814,8.7338 -7.48504,13.44626 -0.63014,1.51653 -1.30164,3.34522 -0.3466,4.87905 1.39335,2.34428 3.60135,4.04894 5.64955,5.79358 1.89984,1.61562 4.02937,2.95444 5.85374,4.6555 0.69683,0.7081 0.11162,1.77006 -0.0115,2.59557 -1.34744,4.67875 -2.72579,9.3744 -3.30339,14.22457 -0.38264,2.54214 -0.47659,5.15759 -1.2515,7.62127 -4.00331,0.87739 -8.10469,1.3325 -12.03885,2.5057 -1.923694,0.557 -3.816291,1.86467 -4.312708,3.90836 -0.609222,2.56239 0.01961,5.19888 0.238051,7.77199 0.5444,4.29712 0.844064,8.65317 1.939683,12.85692 0.598249,2.31014 1.986824,4.56714 4.269814,5.51377 2.7403,1.16473 5.76312,1.33099 8.65449,1.91437 2.06321,0.41905 4.21475,0.62825 6.15382,1.48983 0.56819,0.5715 0.74345,1.46032 1.1605,2.15211 1.38344,2.72641 2.5085,5.63867 4.42544,8.05101 1.19082,1.49487 3.18369,2.24345 5.06296,1.87219 2.64694,-0.48885 5.13844,-1.57016 7.69094,-2.39563 1.6543,-0.63542 3.68154,-1.29577 4.3418,-3.125 0.59287,-1.80161 -0.72417,-3.39908 -1.55155,-4.87527 -1.2874,-2.2271 -2.51555,-4.72616 -3.46603,-6.97434 -1.16602,-2.77371 -2.13013,-5.63214 -2.87695,-8.54687 -0.15384,-0.60181 -0.37399,-1.52681 -0.52909,-2.25752 -0.6215,-2.88694 -1.01378,-5.82135 -1.20333,-8.76787 -0.0262,-0.55065 -0.0794,-1.44383 -0.0899,-2.12419 -0.21344,-7.80573 1.13039,-15.627 3.74809,-22.97542 0.23597,-0.66408 0.59259,-1.6122 0.89697,-2.37587 0.58358,-1.46724 1.21298,-2.88678 1.85708,-4.24407 8.30342,-17.36966 23.5815,-31.25843 41.6522,-37.89373 0.53426,-0.19429 1.38901,-0.49999 2.0519,-0.71768 12.65217,-4.26432 26.51752,-4.76093 39.45862,-1.49837 15.77202,3.87074 30.15409,13.00201 40.49375,25.50938 9.73367,11.70674 16.02771,26.45813 16.76533,41.73545 0.45084,8.77567 -1.04873,17.63671 -4.36545,25.77418 -0.657,1.68092 -1.34417,3.75073 -0.20102,5.38454 1.13057,1.47098 3.0613,1.8628 4.62607,2.7011 2.41932,1.04327 4.80889,2.3221 7.43981,2.72602 1.72405,0.28309 3.44139,-0.65002 4.33857,-2.11106 0.64226,-0.87254 1.09635,-2.06976 2.29223,-2.29419 3.4751,-1.06963 7.11749,-1.48443 10.59629,-2.53359 1.94898,-0.58775 3.4383,-2.22457 3.99538,-4.16223 0.99441,-3.29954 1.25323,-6.76227 1.8039,-10.15176 0.33371,-2.87017 1.06375,-5.76097 0.82505,-8.67376 -0.14135,-2.02666 -1.57495,-3.7499 -3.40168,-4.5435 -3.43796,-1.5742 -7.22578,-2.19195 -10.69922,-3.66992 -1.20453,-0.46395 -1.13081,-1.94716 -1.31915,-3.00706 -0.63492,-5.94944 -1.69224,-11.87398 -3.41435,-17.60899 -0.33561,-1.2639 -1.02666,-2.47332 -1.05947,-3.79411 0.65821,-1.31442 1.96904,-2.15388 3.02418,-3.13423 2.15151,-1.85576 4.51447,-3.56239 6.59361,-5.5586 1.38514,-1.26796 2.02526,-3.27652 1.47792,-5.09428 -0.8167,-2.7766 -2.34928,-5.27007 -3.61524,-7.85547 -2.18452,-4.05558 -4.43895,-8.12203 -7.3634,-11.69966 -0.93742,-1.174 -2.27721,-2.25006 -3.87488,-2.07182 -2.44231,0.27734 -4.70175,1.35462 -7.00481,2.15104 -1.86972,0.63892 -3.67851,1.5598 -5.64948,1.83724 -1.25129,-0.016 -2.08056,-1.16455 -2.96851,-1.89316 -4.6209,-4.54136 -9.31496,-9.02928 -14.42595,-13.021599 -0.60162,-0.404935 -0.96542,-1.079368 -0.80281,-1.809852 0.46452,-3.393504 1.39985,-6.702429 2.08011,-10.05646 0.40308,-1.82491 0.8048,-3.650119 1.20895,-5.47479 -0.9588,-1.321314 -1.88895,-2.721051 -3.33156,-3.566717 -4.11635,-2.661659 -8.69339,-4.508749 -13.25482,-6.255577 -2.61623,-0.900901 -5.19962,-1.973091 -7.92677,-2.49195 -1.83915,-0.369291 -3.82448,0.369049 -4.91191,1.91235 -1.65649,2.279815 -2.58378,4.981261 -3.79738,7.503626 -0.81909,1.690321 -1.42815,3.523708 -2.58029,5.025221 -0.57203,0.442042 -1.38817,0.04546 -2.03889,0.0067 -4.95751,-1.058135 -9.97218,-1.92924 -15.04748,-2.11631 -4.26347,-0.225717 -8.53362,-0.04668 -12.79889,-0.106163 -0.87226,-0.0078 -1.86668,-0.205022 -2.28263,-1.075027 -1.46956,-2.515546 -2.5515,-5.236878 -3.8661,-7.834667 -1.10163,-2.136987 -1.9993,-4.559887 -3.98554,-6.052263 -0.88234,-0.612306 -1.95287,-0.894505 -3.02149,-0.873047 z" />
    <path
       id="path3"
       d="m 177.582,56.274 c -6.581,1.007 -21.702,5.988 -28.328,9.333 -7.222,3.646 -8.595,8.284 -5.834,19.706 0.774,3.202 0.79,3.514 0.201,3.945 -0.352,0.257 -0.555,0.582 -0.451,0.722 0.104,0.14 0.079,0.173 -0.056,0.074 -0.328,-0.241 -3.118,1.706 -6.478,4.52 -3.261,2.731 -2.69,2.674 -7.757,0.77 -12.953,-4.869 -17.745,-1.731 -29.072,19.035 -7.974,14.617 -7.537,19.52 2.431,27.304 1.777,1.387 3.231,2.682 3.231,2.878 0,0.285 -1.399,7.735 -2.167,11.542 -0.141,0.699 -0.768,0.968 -3.981,1.706 -14.369,3.303 -16.597,8.068 -13.332,28.519 3.036,19.016 5.13,21.551 19.38,23.456 3.913,0.523 4.219,0.714 5.231,3.257 l 0.639,1.607 -3.094,2.878 c -14.36,13.361 -14.206,34.155 0.306,41.327 7.466,3.69 14.527,1.57 18.557,-5.569 1.424,-2.523 1.822,-2.777 4.635,-2.954 1.754,-0.11 2.12,-0.028 2.002,0.451 -4.73,19.193 15.532,32.287 31.482,20.345 4.132,-3.094 4.982,-3.361 12.575,-3.947 17.188,-1.329 26.766,-3.918 34.896,-9.434 2.386,-1.619 2.586,-1.494 1.671,1.044 -3.655,10.145 5.096,19.491 18.739,20.013 19.602,0.751 37.51,-10.977 41.056,-26.887 0.958,-4.302 0.84,-4.076 1.717,-3.282 0.421,0.381 1.132,1.679 1.581,2.885 2.923,7.861 9.752,11.646 17.453,9.673 18.467,-4.731 21.824,-28.998 6.236,-45.077 -1.509,-1.558 -2.664,-2.912 -2.566,-3.01 0.098,-0.099 2.237,-0.615 4.752,-1.148 10.748,-2.276 12.513,-5.301 14.956,-25.628 1.771,-14.727 -0.353,-18.847 -11.356,-22.037 -3.726,-1.08 -4.086,-1.357 -4.1,-3.158 -0.005,-0.645 -0.526,-3.721 -1.158,-6.836 -0.631,-3.115 -1.025,-5.768 -0.875,-5.895 0.15,-0.127 1.628,-1.236 3.285,-2.465 8.356,-6.196 8.835,-10.655 2.502,-23.281 -10.788,-21.508 -15.821,-25.309 -27.946,-21.105 l -4.464,1.547 -2.899,-2.623 c -1.594,-1.443 -3.684,-3.239 -4.644,-3.991 -1.438,-1.126 -1.709,-1.539 -1.54,-2.343 0.113,-0.537 0.65,-2.911 1.194,-5.274 2.928,-12.725 -1.798,-18.067 -22.786,-25.755 -16.264,-5.958 -20.354,-4.954 -25.808,6.333 -1.579,3.269 -1.801,3.542 -2.984,3.68 -0.703,0.082 -1.206,0.033 -1.118,-0.11 0.257,-0.415 -5.431,-0.775 -11.204,-0.708 -6.476,0.074 -5.7,0.582 -8.693,-5.687 -4.339,-9.087 -8.15,-11.549 -16.017,-10.346 m 3.609,12.428 c 0.57,0.619 2.333,3.952 3.919,7.408 3.838,8.363 2.434,7.593 14.013,7.688 9.603,0.079 11.502,0.271 20.688,2.094 2.72,0.539 3.102,0.125 6.266,-6.797 2.765,-6.052 4.107,-8.007 5.488,-7.996 2.753,0.021 20.462,7.421 22.628,9.455 1.26,1.185 1.151,2.875 -0.692,10.657 -1.914,8.085 -2.022,7.621 2.647,11.357 2.097,1.678 6.186,5.369 9.086,8.202 6.504,6.354 5.642,6.116 12.631,3.492 6.574,-2.467 8.049,-2.639 9.472,-1.105 2.694,2.908 11.101,18.207 11.101,20.204 0,1.351 -0.845,2.232 -6.246,6.509 -6.03,4.776 -5.913,4.49 -4.149,10.173 1.554,5.006 2.793,11.124 3.194,15.777 0.474,5.491 0.264,5.284 7.812,7.689 9.2,2.932 8.761,1.74 6.371,17.311 -1.339,8.722 -0.911,8.254 -9.131,9.984 -6.933,1.46 -6.913,1.451 -8.233,3.704 -1.703,2.905 -1.816,2.907 -8.224,0.144 -6.886,-2.969 -6.81,-2.859 -5.016,-7.277 20.951,-51.61 -34.536,-109.632 -90.311,-94.437 -46.126,12.566 -69.955,63.51 -47.216,100.943 2.328,3.831 2.14,4.085 -4.623,6.244 -7.772,2.481 -7.802,2.468 -11.611,-5.321 -2.851,-5.83 -2.551,-5.63 -10.376,-6.927 -7.89,-1.307 -8.99,-1.612 -9.672,-2.682 -0.942,-1.475 -2.56,-10.85 -3.553,-20.586 -0.459,-4.507 0.892,-5.221 14.365,-7.591 2.054,-0.361 2.488,-1.268 3.188,-6.666 0.554,-4.282 1.813,-9.979 3.668,-16.602 0.963,-3.436 0.929,-3.503 -3.311,-6.69 -5.065,-3.807 -8.723,-7.355 -8.723,-8.461 0,-1.941 7.063,-14.644 11.384,-20.472 2.832,-3.821 2.803,-3.821 12.758,0.125 6.132,2.43 6.124,2.43 9.346,-0.503 3.899,-3.549 8.053,-6.801 12.019,-9.409 5.801,-3.814 5.485,-2.595 3.367,-12.973 -1.887,-9.249 -1.936,-9.034 2.55,-11.176 4.052,-1.934 11.397,-4.417 16.683,-5.641 5.103,-1.181 5.217,-1.179 6.443,0.152 m 85.90678,94.58282 c 2.46075,13.60819 0.36522,30.76718 -9.00678,40.49718 -3.662,3.801 -3.658,3.804 6.826,6.512 14.041,3.626 23.143,8.229 28.852,14.589 5.842,6.509 7.286,16.564 3.067,21.357 -3.907,4.44 -6.971,4.376 -6.99,-0.146 -0.017,-3.818 -4.387,-8.045 -12.316,-11.913 l -5.952,-2.903 -3.074,-4.602 c -5.23,-7.83 -12.575,-14.805 -15.265,-14.496 -2.05,0.235 -1.723,2.237 1.072,6.57 11.411,17.691 10.938,32.359 -1.363,42.269 -9.572,7.712 -25.995,8.968 -25.995,1.989 0,-1.768 0.513,-2.605 3.592,-5.857 5.504,-5.815 5.986,-13.371 1.557,-24.416 -3.969,-9.897 -9.478,-18.064 -12.832,-19.026 -3.039,-0.871 -4.139,0.745 -4.798,7.046 -2.071,19.816 -15.093,31.545 -38.105,34.322 -10.601,1.279 -13.762,2.387 -18.554,6.5 -4.17,3.579 -6.093,3.892 -8.698,1.419 -5.689,-5.402 -2.551,-14.911 6.304,-19.103 1.209,-0.573 3.686,-1.641 5.505,-2.375 9.386,-3.786 14.807,-7.882 17.414,-13.157 3.445,-6.969 2.42,-13.127 -2.183,-13.127 -1.58,0 -1.821,0.181 -6.573,4.945 -12.715,12.746 -19.809,16.122 -33.918,16.141 -11.415,0.015 -15.643,1.99 -19.045,8.895 -1.566,3.178 -1.951,3.34 -3.886,1.64 -3.415,-2.998 -3.147,-9.841 0.613,-15.659 5.056,-7.822 11.178,-10.88 23.373,-11.673 17.612,-1.147 24.941,-10.285 14.602,-18.204 -11.138,-8.531 -15.308,-30.146 -9.296,-48.194 7.759,-23.295 39.85687,-44.17343 65.84251,-42.16884 26.26693,2.02629 53.36822,19.91083 59.23027,52.32866 z M 231.152,166.551 c -7.545,2.807 -8.212,13.5 -1.071,17.169 6.742,3.464 14.113,-2.578 12.473,-10.224 -1.113,-5.191 -6.803,-8.657 -11.402,-6.945 m -45.05,1.177 c -5.752,2.679 -6.736,11.11 -1.816,15.547 5.679,5.12 14.152,0.804 14.152,-7.209 0,-7.008 -6.197,-11.196 -12.336,-8.338"
       stroke="none"
       fill="#300b75"
       fill-rule="evenodd"
       style="display:inline"
       sodipodi:nodetypes="ccscscccccssccccccccccccccccccccccccscscsccccccccsccccccccccccscccsccccccccccccscccccccsccccccccscccccccccccsccccccccccsccccccscascsccccsc" />
  </g>
</svg>
